<?xml version="1.0" standalone="no"?>
<!DOCTYPE svg PUBLIC "-//W3C//DTD SVG 20010904//EN"
 "http://www.w3.org/TR/2001/REC-SVG-20010904/DTD/svg10.dtd">
<svg version="1.0" xmlns="http://www.w3.org/2000/svg"
 width="601.000000pt" height="601.000000pt" viewBox="0 0 601.000000 601.000000"
 preserveAspectRatio="xMidYMid meet">
<metadata>
Created by potrace 1.11, written by Peter Selinger 2001-2013
</metadata>
<g transform="translate(0.000000,601.000000) scale(0.100000,-0.100000)"
fill="#000000" stroke="none">
<path d="M349 5996 c-162 -45 -295 -182 -332 -342 -20 -85 -18 -5236 2 -5304
47 -163 183 -293 349 -331 33 -8 800 -11 2647 -11 2568 0 2601 0 2662 20 160
51 285 186 316 342 14 66 16 5193 3 5270 -21 119 -125 259 -234 314 -118 60
73 56 -2767 55 -2060 -1 -2610 -3 -2646 -13z"/>
</g>
</svg>
