<svg xmlns="http://www.w3.org/2000/svg" viewBox="0 0 378.9 22.72"><defs><style>.cls-1{fill:#e60c01;}</style></defs><g id="Layer_2" data-name="Layer 2"><g id="copy"><path class="cls-1" d="M0,2.82H5.86a9,9,0,0,1,2.83.45,7,7,0,0,1,2.42,1.37A6.77,6.77,0,0,1,12.79,7a8,8,0,0,1,.63,3.29,7,7,0,0,1-2.59,5.62,8,8,0,0,1-2.55,1.36,8.88,8.88,0,0,1-2.74.45H0ZM4.62,15.29A9.26,9.26,0,0,0,7,15a5.48,5.48,0,0,0,1.92-.89,4.07,4.07,0,0,0,1.29-1.55,5.13,5.13,0,0,0,.48-2.32,5.74,5.74,0,0,0-.42-2.31A4.05,4.05,0,0,0,9.06,6.37,5,5,0,0,0,7.3,5.49a8.33,8.33,0,0,0-2.24-.28H2.65V15.29Z"/><path class="cls-1" d="M22,16.3h-.07a3.24,3.24,0,0,1-1.38,1.25,4.35,4.35,0,0,1-1.85.39,5.12,5.12,0,0,1-1.35-.19,3.8,3.8,0,0,1-1.18-.57,2.93,2.93,0,0,1-.83-.95A2.63,2.63,0,0,1,15,14.91a3,3,0,0,1,.29-1.4,3,3,0,0,1,.79-1,3.91,3.91,0,0,1,1.14-.62,8.75,8.75,0,0,1,1.36-.35A13.2,13.2,0,0,1,20,11.44c.48,0,.93,0,1.35,0H22v-.27a1.66,1.66,0,0,0-.65-1.42,2.81,2.81,0,0,0-1.66-.47,4.07,4.07,0,0,0-1.49.28,3.8,3.8,0,0,0-1.2.77L15.69,9a4.78,4.78,0,0,1,2-1.24A7.28,7.28,0,0,1,20,7.35a5.92,5.92,0,0,1,1.81.24A3.92,3.92,0,0,1,23,8.21a2.79,2.79,0,0,1,.75.87,4.1,4.1,0,0,1,.38,1,5.74,5.74,0,0,1,.13,1c0,.31,0,.59,0,.83v5.79H22Zm-.15-3.13h-.53c-.34,0-.74,0-1.17,0a6.08,6.08,0,0,0-1.23.2,2.87,2.87,0,0,0-1,.46,1,1,0,0,0-.39.85,1.11,1.11,0,0,0,.15.6,1.46,1.46,0,0,0,.41.41,1.81,1.81,0,0,0,.57.24,2.72,2.72,0,0,0,.63.08,2.62,2.62,0,0,0,1.92-.62,2.31,2.31,0,0,0,.62-1.69Z"/><path class="cls-1" d="M25.62,7.6h2.75l2.69,7.06h0L33.81,7.6h2.58l-4,10.08H29.74Z"/><path class="cls-1" d="M37.57,4.18A1.44,1.44,0,0,1,38,3.12a1.54,1.54,0,0,1,1.14-.45,1.66,1.66,0,0,1,1.17.43,1.42,1.42,0,0,1,.47,1.08,1.42,1.42,0,0,1-.47,1.08,1.66,1.66,0,0,1-1.17.43A1.54,1.54,0,0,1,38,5.24,1.44,1.44,0,0,1,37.57,4.18Zm.35,3.42h2.53V17.68H37.92Z"/><path class="cls-1" d="M45.36,13.53a2.56,2.56,0,0,0,.88,1.76,2.77,2.77,0,0,0,1.83.63,3,3,0,0,0,1.58-.39,4.23,4.23,0,0,0,1.13-1l1.8,1.37a4.93,4.93,0,0,1-2,1.55,5.79,5.79,0,0,1-2.29.47,6.06,6.06,0,0,1-2.14-.38,5,5,0,0,1-2.91-2.74,5.3,5.3,0,0,1-.43-2.18,5.29,5.29,0,0,1,.43-2.17A5.1,5.1,0,0,1,44.43,8.8a5.19,5.19,0,0,1,1.75-1.07,6.06,6.06,0,0,1,2.14-.38,4.8,4.8,0,0,1,1.92.37,4.06,4.06,0,0,1,1.49,1.06,4.75,4.75,0,0,1,1,1.71A7.3,7.3,0,0,1,53,12.83v.7Zm5.17-1.89a2.4,2.4,0,0,0-.7-1.76A2.59,2.59,0,0,0,48,9.24a2.46,2.46,0,0,0-1.79.65,3,3,0,0,0-.81,1.75Z"/><path class="cls-1" d="M60.77,10.4a2.3,2.3,0,0,0-2-1,2.08,2.08,0,0,0-1,.25.86.86,0,0,0-.48.82.7.7,0,0,0,.4.67,4.33,4.33,0,0,0,1,.36l1.31.3a5.69,5.69,0,0,1,1.31.48,2.91,2.91,0,0,1,1,.9,2.69,2.69,0,0,1,.4,1.55,2.79,2.79,0,0,1-.39,1.52,3,3,0,0,1-1,1,4.45,4.45,0,0,1-1.4.55,7.36,7.36,0,0,1-1.55.17,6.79,6.79,0,0,1-2.16-.34,4.08,4.08,0,0,1-1.77-1.22l1.68-1.57a5,5,0,0,0,1,.89,2.55,2.55,0,0,0,1.36.35,2.77,2.77,0,0,0,.56-.07,1.74,1.74,0,0,0,.55-.21,1.31,1.31,0,0,0,.41-.36.85.85,0,0,0,.16-.52.87.87,0,0,0-.4-.78,4,4,0,0,0-1-.41c-.41-.1-.84-.2-1.31-.29A5.05,5.05,0,0,1,56.22,13a2.69,2.69,0,0,1-1-.85,2.51,2.51,0,0,1-.4-1.51,2.84,2.84,0,0,1,.35-1.46,2.89,2.89,0,0,1,.91-1,4,4,0,0,1,1.3-.59,5.8,5.8,0,0,1,1.49-.19,6.06,6.06,0,0,1,2,.35,3.23,3.23,0,0,1,1.59,1.18Z"/><path class="cls-1" d="M76,2.82h2.29l6.4,14.86h-3l-1.39-3.4H73.81l-1.34,3.4h-3ZM79.34,12,77.05,6l-2.33,6Z"/><path class="cls-1" d="M91.47,10.4a2.29,2.29,0,0,0-2-1,2.08,2.08,0,0,0-1,.25.86.86,0,0,0-.48.82.7.7,0,0,0,.4.67,4.33,4.33,0,0,0,1,.36l1.31.3a5.52,5.52,0,0,1,1.31.48,2.91,2.91,0,0,1,1,.9,2.62,2.62,0,0,1,.4,1.55,2.79,2.79,0,0,1-.39,1.52,2.93,2.93,0,0,1-1,1,4.49,4.49,0,0,1-1.39.55,7.53,7.53,0,0,1-1.56.17A6.79,6.79,0,0,1,87,17.6a4,4,0,0,1-1.76-1.22l1.68-1.57a4.73,4.73,0,0,0,1,.89,2.57,2.57,0,0,0,1.36.35,3,3,0,0,0,.57-.07,1.78,1.78,0,0,0,.54-.21,1.31,1.31,0,0,0,.41-.36.85.85,0,0,0,.16-.52.85.85,0,0,0-.4-.78,4,4,0,0,0-1-.41c-.4-.1-.84-.2-1.31-.29A5.05,5.05,0,0,1,86.92,13a2.69,2.69,0,0,1-1-.85,2.51,2.51,0,0,1-.4-1.51,2.84,2.84,0,0,1,.35-1.46,2.89,2.89,0,0,1,.91-1,4,4,0,0,1,1.3-.59,5.8,5.8,0,0,1,1.49-.19,6,6,0,0,1,2,.35,3.19,3.19,0,0,1,1.59,1.18Z"/><path class="cls-1" d="M100.8,10.4a2.3,2.3,0,0,0-2-1,2.07,2.07,0,0,0-1,.25.85.85,0,0,0-.49.82.71.71,0,0,0,.4.67,4.51,4.51,0,0,0,1,.36l1.31.3a5.76,5.76,0,0,1,1.32.48,2.88,2.88,0,0,1,1,.9,2.62,2.62,0,0,1,.4,1.55,2.79,2.79,0,0,1-.39,1.52,2.9,2.9,0,0,1-1,1,4.55,4.55,0,0,1-1.4.55,7.51,7.51,0,0,1-1.55.17,6.81,6.81,0,0,1-2.17-.34,4.05,4.05,0,0,1-1.76-1.22l1.68-1.57a4.78,4.78,0,0,0,1,.89,2.51,2.51,0,0,0,1.35.35,2.86,2.86,0,0,0,.57-.07,1.74,1.74,0,0,0,.55-.21,1.59,1.59,0,0,0,.41-.36.91.91,0,0,0,.15-.52.85.85,0,0,0-.4-.78,3.91,3.91,0,0,0-1-.41c-.41-.1-.85-.2-1.32-.29A5.18,5.18,0,0,1,96.24,13a2.77,2.77,0,0,1-1-.85,2.58,2.58,0,0,1-.4-1.51,3,3,0,0,1,.35-1.46,3,3,0,0,1,.91-1,4,4,0,0,1,1.31-.59,5.74,5.74,0,0,1,1.49-.19,6,6,0,0,1,2,.35,3.26,3.26,0,0,1,1.6,1.18Z"/><path class="cls-1" d="M104.24,12.64a5.29,5.29,0,0,1,.43-2.17,5,5,0,0,1,2.91-2.74,6.22,6.22,0,0,1,4.28,0,5.09,5.09,0,0,1,1.75,1.07,5,5,0,0,1,1.16,1.67,5.29,5.29,0,0,1,.43,2.17,5.3,5.3,0,0,1-.43,2.18,5,5,0,0,1-2.91,2.74,6.22,6.22,0,0,1-4.28,0,5.14,5.14,0,0,1-1.74-1.07,5.24,5.24,0,0,1-1.17-1.67A5.3,5.3,0,0,1,104.24,12.64Zm2.52,0a3.38,3.38,0,0,0,.2,1.14,2.8,2.8,0,0,0,.59,1,3,3,0,0,0,.93.68,3.08,3.08,0,0,0,1.24.25,3,3,0,0,0,1.24-.25,2.86,2.86,0,0,0,1.52-1.64,3.15,3.15,0,0,0,.2-1.14,3.09,3.09,0,0,0-.2-1.13,3,3,0,0,0-.58-1,2.92,2.92,0,0,0-.94-.67,2.89,2.89,0,0,0-1.24-.25,2.92,2.92,0,0,0-1.24.25,3,3,0,0,0-.93.67,2.84,2.84,0,0,0-.59,1A3.32,3.32,0,0,0,106.76,12.64Z"/><path class="cls-1" d="M124.44,10.63a3.89,3.89,0,0,0-.92-.74,2,2,0,0,0-1-.27,2.92,2.92,0,0,0-1.24.25,3,3,0,0,0-.93.67,2.84,2.84,0,0,0-.59,1,3.32,3.32,0,0,0-.2,1.13,3.38,3.38,0,0,0,.2,1.14,2.8,2.8,0,0,0,.59,1,3,3,0,0,0,.93.68,3.08,3.08,0,0,0,1.24.25,2.42,2.42,0,0,0,2-.95l1.68,1.81a4.09,4.09,0,0,1-.88.65,6.13,6.13,0,0,1-1,.44,6.52,6.52,0,0,1-1,.24,5.13,5.13,0,0,1-.8.08,6.1,6.1,0,0,1-2.14-.38,5.14,5.14,0,0,1-1.74-1.07,5.24,5.24,0,0,1-1.17-1.67,5.3,5.3,0,0,1-.43-2.18,5.29,5.29,0,0,1,.43-2.17,5,5,0,0,1,2.91-2.74,6.1,6.1,0,0,1,2.14-.38,5.34,5.34,0,0,1,1.94.37,4.41,4.41,0,0,1,1.72,1.16Z"/><path class="cls-1" d="M127.36,4.18a1.44,1.44,0,0,1,.45-1.06A1.57,1.57,0,0,1,129,2.67a1.63,1.63,0,0,1,1.16.43,1.4,1.4,0,0,1,.48,1.08,1.4,1.4,0,0,1-.48,1.08,1.63,1.63,0,0,1-1.16.43,1.57,1.57,0,0,1-1.15-.45A1.44,1.44,0,0,1,127.36,4.18Zm.36,3.42h2.52V17.68h-2.52Z"/><path class="cls-1" d="M139.44,16.3h-.07A3.24,3.24,0,0,1,138,17.55a4.35,4.35,0,0,1-1.85.39,5.12,5.12,0,0,1-1.35-.19,3.7,3.7,0,0,1-1.18-.57,2.93,2.93,0,0,1-.83-.95,2.63,2.63,0,0,1-.32-1.32,3,3,0,0,1,.3-1.4,3,3,0,0,1,.79-1,3.91,3.91,0,0,1,1.14-.62,8.47,8.47,0,0,1,1.36-.35,13.2,13.2,0,0,1,1.41-.14c.48,0,.93,0,1.35,0h.63v-.27a1.66,1.66,0,0,0-.65-1.42,2.81,2.81,0,0,0-1.66-.47,4,4,0,0,0-1.49.28,3.8,3.8,0,0,0-1.2.77L133.12,9a4.78,4.78,0,0,1,2-1.24,7.28,7.28,0,0,1,2.32-.38,5.92,5.92,0,0,1,1.81.24,3.92,3.92,0,0,1,1.21.62,2.79,2.79,0,0,1,.75.87,4.55,4.55,0,0,1,.38,1,5.74,5.74,0,0,1,.13,1c0,.31,0,.59,0,.83v5.79h-2.27Zm-.15-3.13h-.53c-.34,0-.74,0-1.17,0a6.08,6.08,0,0,0-1.23.2,2.87,2.87,0,0,0-1,.46,1,1,0,0,0-.39.85,1.11,1.11,0,0,0,.15.6,1.46,1.46,0,0,0,.41.41,1.81,1.81,0,0,0,.57.24,2.72,2.72,0,0,0,.63.08,2.62,2.62,0,0,0,1.92-.62,2.31,2.31,0,0,0,.62-1.69Z"/><path class="cls-1" d="M143.24,9.75V7.6h2.08V4.68h2.52V7.6h2.77V9.75h-2.77v4.41a2.16,2.16,0,0,0,.28,1.19,1.22,1.22,0,0,0,1.12.44,4,4,0,0,0,.74-.07,1.66,1.66,0,0,0,.63-.24V17.6a3.17,3.17,0,0,1-1,.26,8,8,0,0,1-1,.08,5.4,5.4,0,0,1-1.65-.22,2.2,2.2,0,0,1-1-.68,2.46,2.46,0,0,1-.51-1.12,8,8,0,0,1-.13-1.55V9.75Z"/><path class="cls-1" d="M154.6,13.53a2.56,2.56,0,0,0,.88,1.76,2.75,2.75,0,0,0,1.83.63,3,3,0,0,0,1.58-.39,4.39,4.39,0,0,0,1.13-1l1.8,1.37a5,5,0,0,1-2,1.55,5.79,5.79,0,0,1-2.29.47,6.06,6.06,0,0,1-2.14-.38,5,5,0,0,1-2.91-2.74,5.3,5.3,0,0,1-.43-2.18,5.29,5.29,0,0,1,.43-2.17,5.1,5.1,0,0,1,1.16-1.67,5.19,5.19,0,0,1,1.75-1.07,6.06,6.06,0,0,1,2.14-.38,4.8,4.8,0,0,1,1.92.37A4.06,4.06,0,0,1,161,8.78a4.9,4.9,0,0,1,1,1.71,7.3,7.3,0,0,1,.34,2.34v.7Zm5.16-1.89a2.36,2.36,0,0,0-.69-1.76,2.59,2.59,0,0,0-1.87-.64,2.46,2.46,0,0,0-1.79.65,3,3,0,0,0-.81,1.75Z"/><path class="cls-1" d="M170,10.4a2.3,2.3,0,0,0-2-1,2.08,2.08,0,0,0-1,.25.86.86,0,0,0-.48.82.7.7,0,0,0,.4.67,4.41,4.41,0,0,0,1,.36l1.32.3a5.69,5.69,0,0,1,1.31.48,2.91,2.91,0,0,1,1,.9,2.69,2.69,0,0,1,.4,1.55,2.79,2.79,0,0,1-.39,1.52,3,3,0,0,1-1,1,4.45,4.45,0,0,1-1.4.55,7.36,7.36,0,0,1-1.55.17,6.79,6.79,0,0,1-2.16-.34,4.08,4.08,0,0,1-1.77-1.22l1.68-1.57a5,5,0,0,0,1,.89,2.52,2.52,0,0,0,1.36.35,2.77,2.77,0,0,0,.56-.07,1.74,1.74,0,0,0,.55-.21,1.44,1.44,0,0,0,.41-.36.91.91,0,0,0,.16-.52.87.87,0,0,0-.4-.78,4,4,0,0,0-1-.41c-.41-.1-.84-.2-1.31-.29a5.05,5.05,0,0,1-1.31-.44,2.69,2.69,0,0,1-1-.85,2.51,2.51,0,0,1-.4-1.51,3,3,0,0,1,.34-1.46,3,3,0,0,1,.92-1,4,4,0,0,1,1.3-.59,5.8,5.8,0,0,1,1.49-.19,6.06,6.06,0,0,1,2,.35,3.23,3.23,0,0,1,1.59,1.18Z"/><path class="cls-1" d="M174.8,14.79h2.56l-1.78,5.54h-2.25Z"/><path class="cls-1" d="M186.56,2.82h2.65V17.68h-2.65Z"/><path class="cls-1" d="M192.23,7.6h2.39V9.22h0a3.47,3.47,0,0,1,1.09-1.31,3.22,3.22,0,0,1,2-.56,3.83,3.83,0,0,1,1.71.34,3.3,3.3,0,0,1,1.15.88,3.4,3.4,0,0,1,.63,1.26,5.64,5.64,0,0,1,.19,1.49v6.36h-2.52v-5.1c0-.28,0-.59,0-.93a3.72,3.72,0,0,0-.22-1,1.91,1.91,0,0,0-.56-.76,1.62,1.62,0,0,0-1-.3,2.41,2.41,0,0,0-1.06.21,1.91,1.91,0,0,0-.71.57,2.11,2.11,0,0,0-.41.82,3.37,3.37,0,0,0-.13,1v5.5h-2.52Z"/><path class="cls-1" d="M211.17,10.63a3.89,3.89,0,0,0-.92-.74,2,2,0,0,0-1-.27,2.92,2.92,0,0,0-1.24.25,3,3,0,0,0-.93.67,2.84,2.84,0,0,0-.59,1,3.32,3.32,0,0,0-.2,1.13,3.38,3.38,0,0,0,.2,1.14,2.8,2.8,0,0,0,.59,1,3,3,0,0,0,.93.68,3.08,3.08,0,0,0,1.24.25,2.49,2.49,0,0,0,1.09-.24,2.36,2.36,0,0,0,.86-.71l1.68,1.81a3.8,3.8,0,0,1-.87.65,5.85,5.85,0,0,1-1,.44,6.12,6.12,0,0,1-1,.24,5.25,5.25,0,0,1-.8.08,6.06,6.06,0,0,1-2.14-.38,5.14,5.14,0,0,1-1.74-1.07,5.09,5.09,0,0,1-1.17-1.67,5.3,5.3,0,0,1-.43-2.18,5.29,5.29,0,0,1,.43-2.17,5,5,0,0,1,1.17-1.67,5.14,5.14,0,0,1,1.74-1.07,6.06,6.06,0,0,1,2.14-.38,5.38,5.38,0,0,1,1.94.37,4.38,4.38,0,0,1,1.71,1.16Z"/><path class="cls-1" d="M214.41,16.21a1.55,1.55,0,0,1,.49-1.15,1.64,1.64,0,0,1,1.19-.48,1.66,1.66,0,0,1,1.17.46,1.46,1.46,0,0,1,.51,1.13,1.58,1.58,0,0,1-.5,1.16,1.63,1.63,0,0,1-1.18.48,1.53,1.53,0,0,1-.64-.13,1.63,1.63,0,0,1-.54-.33,1.51,1.51,0,0,1-.5-1.14Z"/><path class="cls-1" d="M248.78,2.82h5.71a7.56,7.56,0,0,1,3.19.7,7.7,7.7,0,0,1,1.55.95,6.59,6.59,0,0,1,1.31,1.42,7.34,7.34,0,0,1,.91,1.91,8.4,8.4,0,0,1,.33,2.45,8.44,8.44,0,0,1-.33,2.45,7.34,7.34,0,0,1-.91,1.91A6.31,6.31,0,0,1,259.23,16a7.32,7.32,0,0,1-1.55,1,8.65,8.65,0,0,1-1.63.54,8,8,0,0,1-1.56.16h-5.71Zm1.77,13.23h3.36a8.18,8.18,0,0,0,2.37-.34,4.81,4.81,0,0,0,3.15-2.84,6.64,6.64,0,0,0,.46-2.62,6.73,6.73,0,0,0-.46-2.63,4.82,4.82,0,0,0-3.15-2.83,8.18,8.18,0,0,0-2.37-.34h-3.36Z"/><path class="cls-1" d="M273.1,15.9a5,5,0,0,1-1.93,1.58,6.14,6.14,0,0,1-2.44.46,5.15,5.15,0,0,1-2.08-.41,4.66,4.66,0,0,1-1.56-1.11,4.72,4.72,0,0,1-1-1.63,5.87,5.87,0,0,1-.35-2,5.67,5.67,0,0,1,.38-2.09A4.81,4.81,0,0,1,265.18,9,4.76,4.76,0,0,1,266.78,8a5.29,5.29,0,0,1,2-.38,5,5,0,0,1,1.89.35,4.15,4.15,0,0,1,1.49,1,4.48,4.48,0,0,1,.95,1.62,6.59,6.59,0,0,1,.34,2.17v.52h-7.94a3.48,3.48,0,0,0,1,2.22,3.08,3.08,0,0,0,1,.68,3,3,0,0,0,1.24.25,3.94,3.94,0,0,0,1.81-.37,4.2,4.2,0,0,0,1.32-1.12Zm-1.41-4a2.84,2.84,0,0,0-.82-2,2.94,2.94,0,0,0-2.14-.75,3,3,0,0,0-3.21,2.77Z"/><path class="cls-1" d="M276.21,15.1a4,4,0,0,0,1.06,1,2.79,2.79,0,0,0,1.46.35,3.33,3.33,0,0,0,.76-.08,2.62,2.62,0,0,0,.71-.27,1.54,1.54,0,0,0,.5-.48,1.14,1.14,0,0,0,.19-.68,1.11,1.11,0,0,0-.18-.65,1.5,1.5,0,0,0-.47-.43,2.7,2.7,0,0,0-.67-.28c-.25-.07-.51-.14-.78-.19-.46-.1-.9-.21-1.32-.34a4.12,4.12,0,0,1-1.1-.49,2.3,2.3,0,0,1-.76-.79,2.4,2.4,0,0,1-.28-1.24,2.5,2.5,0,0,1,.31-1.26,2.78,2.78,0,0,1,.84-.9,4.13,4.13,0,0,1,1.18-.55A5,5,0,0,1,279,7.6a4.48,4.48,0,0,1,1.94.42,3,3,0,0,1,1.4,1.37l-1.37.9a2.5,2.5,0,0,0-.83-.85,2.25,2.25,0,0,0-1.24-.32,2.71,2.71,0,0,0-.69.08,2.44,2.44,0,0,0-.62.25,1.54,1.54,0,0,0-.45.43,1.06,1.06,0,0,0-.18.6.8.8,0,0,0,.2.54,2,2,0,0,0,.55.38,4.62,4.62,0,0,0,.8.3q.45.12.93.21a9,9,0,0,1,1.24.32,3.86,3.86,0,0,1,1,.54,2.36,2.36,0,0,1,.69.84,2.74,2.74,0,0,1,.25,1.24,2.91,2.91,0,0,1-.33,1.43,2.8,2.8,0,0,1-.89.95,3.94,3.94,0,0,1-1.26.54,6.3,6.3,0,0,1-1.44.17,5.55,5.55,0,0,1-2.18-.39,4,4,0,0,1-1.64-1.44Z"/><path class="cls-1" d="M284.71,4a1.18,1.18,0,0,1,.35-.84,1.21,1.21,0,0,1,1.7,0,1.22,1.22,0,0,1,0,1.7A1.2,1.2,0,0,1,284.71,4Zm.38,3.85h1.64v9.82h-1.64Z"/><path class="cls-1" d="M299.79,17.24a5.63,5.63,0,0,1-1.37,4.09,5.36,5.36,0,0,1-4,1.39,7.7,7.7,0,0,1-2.62-.42,6.08,6.08,0,0,1-2.21-1.45l1.17-1.34a5.8,5.8,0,0,0,1.65,1.27,4.44,4.44,0,0,0,2,.43,4.55,4.55,0,0,0,1.81-.32A2.89,2.89,0,0,0,297.4,20a3.28,3.28,0,0,0,.58-1.27,6,6,0,0,0,.17-1.49V16h0a3.59,3.59,0,0,1-1.53,1.39,4.6,4.6,0,0,1-1.93.44,5.89,5.89,0,0,1-2.13-.38,4.85,4.85,0,0,1-1.65-1.05,4.72,4.72,0,0,1-1.08-1.59,5.34,5.34,0,0,1-.37-2,5.9,5.9,0,0,1,.37-2.16A4.54,4.54,0,0,1,290.86,9a4.65,4.65,0,0,1,1.64-1,6.14,6.14,0,0,1,2.15-.36,4.42,4.42,0,0,1,2,.48,3.27,3.27,0,0,1,1.48,1.46h0V7.86h1.64Zm-8.61-4.47a3.6,3.6,0,0,0,.27,1.4,3.68,3.68,0,0,0,.75,1.11,3.49,3.49,0,0,0,1.1.74,3.23,3.23,0,0,0,1.35.28,3.54,3.54,0,0,0,1.49-.3,3.24,3.24,0,0,0,1.1-.78,3.3,3.3,0,0,0,.68-1.14,3.79,3.79,0,0,0,.23-1.35,4,4,0,0,0-.25-1.46,3.65,3.65,0,0,0-.71-1.15,3.09,3.09,0,0,0-1.12-.74,3.66,3.66,0,0,0-1.42-.26,3.46,3.46,0,0,0-1.42.28,3.19,3.19,0,0,0-1.09.78,3.47,3.47,0,0,0-.71,1.15A4,4,0,0,0,291.18,12.77Z"/><path class="cls-1" d="M302.81,10.19c0-.45,0-.87,0-1.26s0-.75,0-1.07h1.55c0,.26,0,.53,0,.79s0,.54,0,.82h0a2.73,2.73,0,0,1,.47-.69,3.59,3.59,0,0,1,.72-.6,4.34,4.34,0,0,1,.95-.42,4.11,4.11,0,0,1,1.13-.16,4.22,4.22,0,0,1,1.67.3,3.09,3.09,0,0,1,1.17.82,3.3,3.3,0,0,1,.68,1.27,5.57,5.57,0,0,1,.22,1.62v6.07h-1.64v-5.9a3.18,3.18,0,0,0-.54-1.95,2,2,0,0,0-1.7-.71,3.24,3.24,0,0,0-1.38.27,2.38,2.38,0,0,0-.94.78,3.35,3.35,0,0,0-.55,1.19,6.14,6.14,0,0,0-.18,1.54v4.78h-1.64Z"/><path class="cls-1" d="M327.68,5.44a2.63,2.63,0,0,0-1.18-1A3.69,3.69,0,0,0,325,4.08a4.55,4.55,0,0,0-1.16.14,3.68,3.68,0,0,0-1,.44A2.4,2.4,0,0,0,322,7.47a1.78,1.78,0,0,0,.51.7,3.76,3.76,0,0,0,1,.59,12.85,12.85,0,0,0,1.49.54c.57.19,1.13.38,1.67.59a5.82,5.82,0,0,1,1.43.8,3.42,3.42,0,0,1,1,1.21,3.92,3.92,0,0,1,.37,1.81A3.88,3.88,0,0,1,327.77,17a5.07,5.07,0,0,1-1.67.8,7.45,7.45,0,0,1-2,.26,8.15,8.15,0,0,1-1.3-.11,6.43,6.43,0,0,1-1.25-.36,5,5,0,0,1-1.12-.63,3.62,3.62,0,0,1-.91-1l1.51-1.24A3.11,3.11,0,0,0,322.43,16a4.1,4.1,0,0,0,1.83.42,4.18,4.18,0,0,0,1.14-.16,3.58,3.58,0,0,0,1-.5,2.56,2.56,0,0,0,.76-.81,2.14,2.14,0,0,0,.29-1.11,2.39,2.39,0,0,0-.23-1.12,2.05,2.05,0,0,0-.72-.75,5.48,5.48,0,0,0-1.21-.57l-1.73-.58a11,11,0,0,1-1.47-.58,4.6,4.6,0,0,1-1.16-.8,3.36,3.36,0,0,1-.78-1.13,4,4,0,0,1-.28-1.59,4,4,0,0,1,.42-1.87,4,4,0,0,1,1.13-1.33,5.13,5.13,0,0,1,1.62-.81,6.87,6.87,0,0,1,4.19.12,4.58,4.58,0,0,1,1.86,1.35Z"/><path class="cls-1" d="M337.38,9.24h-2.9v4.92c0,.32,0,.61,0,.89a1.9,1.9,0,0,0,.17.71,1.08,1.08,0,0,0,.44.48,1.64,1.64,0,0,0,.84.18,3.16,3.16,0,0,0,.74-.08,3.32,3.32,0,0,0,.71-.25l.06,1.49a3.74,3.74,0,0,1-.93.27,5.67,5.67,0,0,1-1,.09,3.39,3.39,0,0,1-1.4-.24,1.85,1.85,0,0,1-.82-.65,2.31,2.31,0,0,1-.39-1,9.47,9.47,0,0,1-.1-1.37V9.24H330.7V7.86h2.14V5.06h1.64v2.8h2.9Z"/><path class="cls-1" d="M348,15.35c0,.45,0,.87.05,1.26s0,.75,0,1.07h-1.56c0-.26,0-.53,0-.79s0-.54,0-.82h0a2.91,2.91,0,0,1-.47.69,4,4,0,0,1-.73.6,4.25,4.25,0,0,1-.94.42,4.13,4.13,0,0,1-1.14.16,4.26,4.26,0,0,1-1.67-.3,3.14,3.14,0,0,1-1.16-.82,3.17,3.17,0,0,1-.68-1.27,5.64,5.64,0,0,1-.22-1.63V7.86H341v5.9a3.18,3.18,0,0,0,.55,2,2,2,0,0,0,1.7.71,3.27,3.27,0,0,0,1.38-.27,2.38,2.38,0,0,0,.94-.78,3.35,3.35,0,0,0,.55-1.19,6.2,6.2,0,0,0,.18-1.54V7.86H348Z"/><path class="cls-1" d="M359.24,15.94h0a3.84,3.84,0,0,1-1.46,1.42,4.62,4.62,0,0,1-2.32.58,4.79,4.79,0,0,1-1.93-.39,4.68,4.68,0,0,1-1.57-1.08,5.15,5.15,0,0,1-1-1.64,5.77,5.77,0,0,1,0-4.12,5,5,0,0,1,1.05-1.64A4.74,4.74,0,0,1,353.56,8a5.54,5.54,0,0,1,2.11-.39,4.41,4.41,0,0,1,2,.44,4.93,4.93,0,0,1,1.57,1.24h0V1.81h1.64V17.68h-1.64Zm0-3.17a4.18,4.18,0,0,0-.24-1.44,3.45,3.45,0,0,0-.7-1.15,3.38,3.38,0,0,0-1.11-.78,3.82,3.82,0,0,0-2.87,0,3.38,3.38,0,0,0-1.11.78,3.45,3.45,0,0,0-.7,1.15,4.44,4.44,0,0,0,0,2.88,3.45,3.45,0,0,0,.7,1.15,3.38,3.38,0,0,0,1.11.78,3.82,3.82,0,0,0,2.87,0,3.38,3.38,0,0,0,1.11-.78,3.45,3.45,0,0,0,.7-1.15A4.18,4.18,0,0,0,359.24,12.77Z"/><path class="cls-1" d="M363.69,4a1.18,1.18,0,0,1,.35-.84,1.21,1.21,0,0,1,1.7,0,1.22,1.22,0,0,1,0,1.7A1.2,1.2,0,0,1,363.69,4Zm.38,3.85h1.64v9.82h-1.64Z"/><path class="cls-1" d="M368.4,12.77a5.46,5.46,0,0,1,.39-2.1A5,5,0,0,1,369.89,9,4.82,4.82,0,0,1,371.55,8a5.72,5.72,0,0,1,2.1-.38,5.8,5.8,0,0,1,2.1.38A5,5,0,0,1,377.41,9a5.12,5.12,0,0,1,1.09,1.63,5.71,5.71,0,0,1,0,4.2,5.12,5.12,0,0,1-1.09,1.63,5,5,0,0,1-1.66,1.06,5.8,5.8,0,0,1-2.1.38,5.72,5.72,0,0,1-2.1-.38,4.82,4.82,0,0,1-1.66-1.06,5,5,0,0,1-1.1-1.63A5.46,5.46,0,0,1,368.4,12.77Zm1.76,0a4.18,4.18,0,0,0,.24,1.44,3.32,3.32,0,0,0,.71,1.15,3.24,3.24,0,0,0,1.1.78,3.82,3.82,0,0,0,2.87,0,3.38,3.38,0,0,0,1.11-.78,3.29,3.29,0,0,0,.7-1.15,4.44,4.44,0,0,0,0-2.88,3.29,3.29,0,0,0-.7-1.15,3.38,3.38,0,0,0-1.11-.78,3.82,3.82,0,0,0-2.87,0,3.24,3.24,0,0,0-1.1.78,3.32,3.32,0,0,0-.71,1.15A4.18,4.18,0,0,0,370.16,12.77Z"/><rect id="CAD_Rectangle" data-name="CAD Rectangle" class="cls-1" x="230.99" width="1.64" height="19.87"/></g></g></svg>